<svg width="18" height="11" viewBox="0 0 18 11" fill="none" xmlns="http://www.w3.org/2000/svg">
<path d="M3.81241 4.246C4.41908 4.246 4.86708 4.12 5.15641 3.868C5.44575 3.60667 5.59041 3.27533 5.59041 2.874V2.776C5.59041 2.328 5.45041 1.98733 5.17041 1.754C4.89041 1.51133 4.51241 1.39 4.03641 1.39C3.56975 1.39 3.17308 1.49733 2.84641 1.712C2.51975 1.91733 2.24441 2.20667 2.02041 2.58L0.970414 1.67C1.11975 1.45533 1.28775 1.25 1.47441 1.054C1.66108 0.857999 1.88041 0.69 2.13241 0.55C2.38441 0.400666 2.66908 0.283999 2.98641 0.199999C3.30375 0.106666 3.66775 0.0599995 4.07841 0.0599995C4.53575 0.0599995 4.96041 0.116 5.35241 0.228C5.74441 0.339999 6.08041 0.507999 6.36041 0.731999C6.64041 0.946666 6.85975 1.21267 7.01841 1.53C7.17708 1.838 7.25641 2.188 7.25641 2.58C7.25641 2.888 7.20508 3.168 7.10241 3.42C7.00908 3.672 6.87375 3.896 6.69641 4.092C6.52841 4.27867 6.32775 4.43267 6.09441 4.554C5.87041 4.67533 5.63241 4.764 5.38041 4.82V4.89C5.66041 4.946 5.92175 5.03933 6.16441 5.17C6.41641 5.29133 6.63575 5.45467 6.82241 5.66C7.00908 5.856 7.15375 6.094 7.25641 6.374C7.36841 6.64467 7.42441 6.95733 7.42441 7.312C7.42441 7.74133 7.34041 8.13333 7.17241 8.488C7.00441 8.83333 6.76641 9.132 6.45841 9.384C6.15975 9.636 5.79575 9.832 5.36641 9.972C4.93708 10.1027 4.46108 10.168 3.93841 10.168C3.48108 10.168 3.07975 10.1167 2.73441 10.014C2.38908 9.92067 2.08108 9.79467 1.81041 9.636C1.54908 9.468 1.31575 9.28133 1.11041 9.076C0.914414 8.86133 0.741747 8.642 0.592414 8.418L1.75441 7.508C1.87575 7.704 2.00175 7.886 2.13241 8.054C2.27241 8.21267 2.42641 8.35267 2.59441 8.474C2.77175 8.586 2.96775 8.67467 3.18241 8.74C3.40641 8.80533 3.65841 8.838 3.93841 8.838C4.53575 8.838 4.99308 8.698 5.31041 8.418C5.62775 8.12867 5.78641 7.732 5.78641 7.228V7.13C5.78641 6.626 5.61841 6.24333 5.28241 5.982C4.94641 5.72067 4.47041 5.59 3.85441 5.59H2.81841V4.246H3.81241ZM9.50295 0.228H12.9609C13.5863 0.228 14.1509 0.330666 14.6549 0.535999C15.1683 0.741333 15.6023 1.04933 15.9569 1.46C16.3209 1.86133 16.6009 2.37 16.7969 2.986C16.9929 3.59267 17.0909 4.302 17.0909 5.114C17.0909 5.926 16.9929 6.64 16.7969 7.256C16.6009 7.86267 16.3209 8.37133 15.9569 8.782C15.6023 9.18333 15.1683 9.48667 14.6549 9.692C14.1509 9.89733 13.5863 10 12.9609 10H9.50295V0.228ZM12.9609 8.6C13.6889 8.6 14.2769 8.37133 14.7249 7.914C15.1729 7.45667 15.3969 6.78467 15.3969 5.898V4.33C15.3969 3.44333 15.1729 2.77133 14.7249 2.314C14.2769 1.85667 13.6889 1.628 12.9609 1.628H11.0849V8.6H12.9609Z" fill="#262626"/>
</svg>
