<svg width="20" height="20" viewBox="0 0 20 20" fill="none" xmlns="http://www.w3.org/2000/svg">
<g clip-path="url(#clip0_154_559)">
<path d="M10.0001 1.66663C14.6026 1.66663 18.3334 5.39746 18.3334 9.99996C18.3334 14.6025 14.6026 18.3333 10.0001 18.3333C5.39758 18.3333 1.66675 14.6025 1.66675 9.99996C1.66675 5.39746 5.39758 1.66663 10.0001 1.66663ZM10.0001 4.99996C9.77907 4.99996 9.56711 5.08776 9.41083 5.24404C9.25455 5.40032 9.16675 5.61228 9.16675 5.83329V9.99996C9.1668 10.221 9.25462 10.4329 9.41091 10.5891L11.9109 13.0891C12.0681 13.2409 12.2786 13.3249 12.4971 13.323C12.7156 13.3211 12.9246 13.2335 13.0791 13.079C13.2336 12.9245 13.3212 12.7155 13.3231 12.497C13.325 12.2785 13.241 12.068 13.0892 11.9108L10.8334 9.65496V5.83329C10.8334 5.61228 10.7456 5.40032 10.5893 5.24404C10.4331 5.08776 10.2211 4.99996 10.0001 4.99996Z" fill="#A3A3A4"/>
</g>
<defs>
<clipPath id="clip0_154_559">
<rect width="20" height="20" fill="white"/>
</clipPath>
</defs>
</svg>
