<svg width="17" height="14" viewBox="0 0 17 14" fill="none" xmlns="http://www.w3.org/2000/svg">
<g clip-path="url(#clip0_154_575)">
<path d="M10.9285 12H12.1428C12.5829 12 12.7499 11.3624 12.7499 11L12.7499 3.5H14.3437C15.0531 3.5 15.4076 2.79182 14.9072 2.3797L12.2509 0.192199C11.9397 -0.0640669 11.4352 -0.0640669 11.124 0.192199L8.46773 2.3797C7.96929 2.79027 8.31878 3.5 9.03119 3.5H10.6249V11C10.6249 11.3624 10.6249 11.7251 10.9285 12ZM6.37494 3V10.5H7.96869C8.67638 10.5 9.03384 11.2072 8.53218 11.6203L5.87593 13.8078C5.56472 14.0641 5.06016 14.0641 4.74898 13.8078L2.09273 11.6203C1.59379 11.2094 1.94441 10.5 2.65619 10.5H4.24994V3C4.24994 2.63756 4.85708 2 5.46422 2C6.07136 2 6.37494 2.63756 6.37494 3Z" fill="#4D4D4D"/>
</g>
<defs>
<clipPath id="clip0_154_575">
<rect width="14" height="17" fill="white" transform="matrix(0 -1 -1 0 17 14)"/>
</clipPath>
</defs>
</svg>
