<svg width="20" height="20" viewBox="0 0 20 20" fill="none" xmlns="http://www.w3.org/2000/svg">
<path d="M1.83472 10.0796C2.12757 10.3724 2.42043 10.4646 2.99829 10.4646L9.33472 10.4982C9.39329 10.4982 9.44329 10.4982 9.46864 10.5314C9.49364 10.5564 9.50186 10.6067 9.50186 10.6571L9.52686 17.0021C9.53543 17.5796 9.62757 17.8724 9.92043 18.1653C10.314 18.5671 10.8665 18.5003 11.2765 18.0985C11.4944 17.8807 11.6701 17.521 11.829 17.186L18.2326 3.37495C18.5672 2.67209 18.5254 2.15281 18.1826 1.80959C17.8472 1.47495 17.3283 1.43317 16.6254 1.76781L2.814 8.17138C2.479 8.33031 2.11936 8.50602 1.9015 8.72388C1.49972 9.13388 1.43293 9.67816 1.83472 10.08" fill="#3C40A4"/>
</svg>
