<svg width="22" height="22" viewBox="0 0 22 22" fill="none" xmlns="http://www.w3.org/2000/svg">
<g id="bx:map">
<path id="Vector" d="M10.9999 12.8333C13.0221 12.8333 14.6666 11.1888 14.6666 9.16667C14.6666 7.1445 13.0221 5.5 10.9999 5.5C8.97775 5.5 7.33325 7.1445 7.33325 9.16667C7.33325 11.1888 8.97775 12.8333 10.9999 12.8333ZM10.9999 7.33333C12.011 7.33333 12.8333 8.15558 12.8333 9.16667C12.8333 10.1778 12.011 11 10.9999 11C9.98884 11 9.16659 10.1778 9.16659 9.16667C9.16659 8.15558 9.98884 7.33333 10.9999 7.33333Z" fill="#3C40A4"/>
<path id="Vector_2" d="M10.4683 19.9962C10.6234 20.107 10.8093 20.1665 10.9999 20.1665C11.1906 20.1665 11.3764 20.107 11.5316 19.9962C11.8103 19.7991 18.3598 15.07 18.3333 9.16668C18.3333 5.12326 15.0433 1.83334 10.9999 1.83334C6.9565 1.83334 3.66658 5.12326 3.66658 9.16209C3.64 15.07 10.1896 19.7991 10.4683 19.9962ZM10.9999 3.66668C14.0332 3.66668 16.4999 6.13343 16.4999 9.17126C16.5192 13.2394 12.4776 16.8923 10.9999 18.0904C9.52317 16.8914 5.48067 13.2376 5.49992 9.16668C5.49992 6.13343 7.96667 3.66668 10.9999 3.66668Z" fill="#3C40A4"/>
</g>
</svg>
