<svg width="30" height="30" viewBox="0 0 30 30" fill="none" xmlns="http://www.w3.org/2000/svg">
<path d="M9 15C9 16.5913 9.63214 18.1174 10.7574 19.2426C11.8826 20.3679 13.4087 21 15 21C16.5913 21 18.1174 20.3679 19.2426 19.2426C20.3679 18.1174 21 16.5913 21 15C21 13.4087 20.3679 11.8826 19.2426 10.7574C18.1174 9.63214 16.5913 9 15 9C13.4087 9 11.8826 9.63214 10.7574 10.7574C9.63214 11.8826 9 13.4087 9 15Z" stroke="#4D4D4D" stroke-width="0.8" stroke-linecap="round" stroke-linejoin="round"/>
<path d="M14.9999 10.5C15.8816 10.4999 16.7438 10.7589 17.4796 11.2447C18.2154 11.7306 18.7922 12.4219 19.1385 13.2327C19.4847 14.0436 19.5851 14.9383 19.4273 15.8058C19.2694 16.6732 18.8602 17.4752 18.2504 18.1121C17.6407 18.7489 16.8573 19.1926 15.9975 19.3881C15.1378 19.5835 14.2395 19.522 13.4144 19.2113C12.5893 18.9006 11.8736 18.3544 11.3563 17.6404C10.839 16.9264 10.5428 16.0762 10.5045 15.1953L10.5 15L10.5045 14.8047C10.5548 13.6462 11.0504 12.5518 11.888 11.7498C12.7255 10.9478 13.8403 10.5001 14.9999 10.5Z" fill="#4D4D4D"/>
</svg>
