<svg width="24" height="24" viewBox="0 0 24 24" fill="none" xmlns="http://www.w3.org/2000/svg">
<path d="M4.12516 2.08331C3.58368 2.08331 3.06437 2.29842 2.68149 2.6813C2.2986 3.06419 2.0835 3.5835 2.0835 4.12498V7.62498C2.0835 7.85704 1.99131 8.0796 1.82721 8.2437C1.66312 8.40779 1.44056 8.49998 1.2085 8.49998C0.976432 8.49998 0.753872 8.40779 0.589778 8.2437C0.425683 8.0796 0.333496 7.85704 0.333496 7.62498V4.12498C0.333496 3.11937 0.732974 2.15494 1.44405 1.44387C2.15512 0.732791 3.11955 0.333313 4.12516 0.333313H7.62516C7.85723 0.333313 8.07979 0.4255 8.24388 0.589594C8.40798 0.753689 8.50016 0.976249 8.50016 1.20831C8.50016 1.44038 8.40798 1.66294 8.24388 1.82703C8.07979 1.99113 7.85723 2.08331 7.62516 2.08331H4.12516ZM4.12516 21.9166C3.58368 21.9166 3.06437 21.7015 2.68149 21.3187C2.2986 20.9358 2.0835 20.4165 2.0835 19.875V16.375C2.0835 16.1429 1.99131 15.9204 1.82721 15.7563C1.66312 15.5922 1.44056 15.5 1.2085 15.5C0.976432 15.5 0.753872 15.5922 0.589778 15.7563C0.425683 15.9204 0.333496 16.1429 0.333496 16.375V19.875C0.333496 20.3729 0.43157 20.866 0.622119 21.326C0.812669 21.786 1.09196 22.204 1.44405 22.5561C1.79614 22.9082 2.21413 23.1875 2.67415 23.378C3.13418 23.5686 3.62723 23.6666 4.12516 23.6666H7.62516C7.85723 23.6666 8.07979 23.5745 8.24388 23.4104C8.40798 23.2463 8.50016 23.0237 8.50016 22.7916C8.50016 22.5596 8.40798 22.337 8.24388 22.1729C8.07979 22.0088 7.85723 21.9166 7.62516 21.9166H4.12516ZM21.9168 4.12498C21.9168 3.5835 21.7017 3.06419 21.3188 2.6813C20.936 2.29842 20.4166 2.08331 19.8752 2.08331H16.3752C16.1431 2.08331 15.9205 1.99113 15.7564 1.82703C15.5924 1.66294 15.5002 1.44038 15.5002 1.20831C15.5002 0.976249 15.5924 0.753689 15.7564 0.589594C15.9205 0.4255 16.1431 0.333313 16.3752 0.333313H19.8752C20.3731 0.333313 20.8661 0.431387 21.3262 0.621936C21.7862 0.812485 22.2042 1.09178 22.5563 1.44387C22.9084 1.79596 23.1877 2.21395 23.3782 2.67397C23.5688 3.134 23.6668 3.62705 23.6668 4.12498V7.62498C23.6668 7.85704 23.5746 8.0796 23.4105 8.2437C23.2465 8.40779 23.0239 8.49998 22.7918 8.49998C22.5598 8.49998 22.3372 8.40779 22.1731 8.2437C22.009 8.0796 21.9168 7.85704 21.9168 7.62498V4.12498ZM19.8752 21.9166C20.4166 21.9166 20.936 21.7015 21.3188 21.3187C21.7017 20.9358 21.9168 20.4165 21.9168 19.875V16.375C21.9168 16.1429 22.009 15.9204 22.1731 15.7563C22.3372 15.5922 22.5598 15.5 22.7918 15.5C23.0239 15.5 23.2465 15.5922 23.4105 15.7563C23.5746 15.9204 23.6668 16.1429 23.6668 16.375V19.875C23.6668 20.3729 23.5688 20.866 23.3782 21.326C23.1877 21.786 22.9084 22.204 22.5563 22.5561C22.2042 22.9082 21.7862 23.1875 21.3262 23.378C20.8661 23.5686 20.3731 23.6666 19.8752 23.6666H16.3752C16.1431 23.6666 15.9205 23.5745 15.7564 23.4104C15.5924 23.2463 15.5002 23.0237 15.5002 22.7916C15.5002 22.5596 15.5924 22.337 15.7564 22.1729C15.9205 22.0088 16.1431 21.9166 16.3752 21.9166H19.8752ZM6.16683 6.16665H9.66683V9.66665H6.16683V6.16665ZM14.3335 9.66665H9.66683V14.3333H6.16683V17.8333H9.66683V14.3333H14.3335V17.8333H17.8335V14.3333H14.3335V9.66665ZM14.3335 9.66665V6.16665H17.8335V9.66665H14.3335Z" fill="black"/>
</svg>
