<svg width="21" height="21" viewBox="0 0 21 21" fill="none" xmlns="http://www.w3.org/2000/svg">
<path d="M19.8438 18.0469H18.0469V2.59375C18.0469 2.11719 17.8576 1.66015 17.5206 1.32317C17.1836 0.986188 16.7266 0.796875 16.25 0.796875H4.75C4.27344 0.796875 3.8164 0.986188 3.47942 1.32317C3.14244 1.66015 2.95312 2.11719 2.95312 2.59375V18.0469H1.15625C0.870313 18.0469 0.596088 18.1605 0.393901 18.3627C0.191713 18.5648 0.078125 18.8391 0.078125 19.125C0.078125 19.4109 0.191713 19.6852 0.393901 19.8873C0.596088 20.0895 0.870313 20.2031 1.15625 20.2031H19.8438C20.1297 20.2031 20.4039 20.0895 20.6061 19.8873C20.8083 19.6852 20.9219 19.4109 20.9219 19.125C20.9219 18.8391 20.8083 18.5648 20.6061 18.3627C20.4039 18.1605 20.1297 18.0469 19.8438 18.0469ZM5.10938 2.95312H15.8906V18.0469H5.10938V2.95312ZM14.4531 10.8594C14.4531 11.1437 14.3688 11.4216 14.2109 11.658C14.0529 11.8944 13.8284 12.0787 13.5657 12.1875C13.3031 12.2963 13.014 12.3247 12.7352 12.2693C12.4563 12.2138 12.2002 12.0769 11.9992 11.8758C11.7981 11.6748 11.6612 11.4187 11.6057 11.1398C11.5503 10.861 11.5787 10.5719 11.6875 10.3093C11.7963 10.0466 11.9806 9.82209 12.217 9.66414C12.4534 9.50618 12.7313 9.42188 13.0156 9.42188C13.3969 9.42188 13.7625 9.57333 14.0321 9.84291C14.3017 10.1125 14.4531 10.4781 14.4531 10.8594Z" fill="black"/>
</svg>
