<svg width="20" height="20" viewBox="0 0 20 20" fill="none" xmlns="http://www.w3.org/2000/svg">
<g clip-path="url(#clip0_76_2627)">
<path d="M4.2 6.4C1.8918 6.4 0 8.286 0 10.588C0 11.48 0.2848 12.309 0.767 12.9904L3.6876 18.0392C4.0966 18.5736 4.3686 18.4722 4.7088 18.0112L7.93 12.5292C7.995 12.4112 8.046 12.286 8.0906 12.158C8.29501 11.6598 8.40011 11.1265 8.4 10.588C8.4 8.286 6.5088 6.4 4.2 6.4ZM4.2 8.3624C5.4432 8.3624 6.432 9.3486 6.432 10.5882C6.432 11.8278 5.4432 12.8136 4.2 12.8136C2.957 12.8136 1.968 11.8276 1.968 10.5882C1.968 9.3486 2.957 8.3624 4.2 8.3624ZM17.55 0C16.2036 0 15.1 1.1002 15.1 2.4432C15.1 2.9634 15.266 3.447 15.5474 3.8444L17.2512 6.7896C17.4898 7.1012 17.6484 7.042 17.8468 6.7732L19.7258 3.5752C19.7638 3.5066 19.7936 3.4336 19.8194 3.3588C19.9387 3.06828 20 2.75725 20 2.4432C20 1.1 18.8968 0 17.55 0ZM17.55 1.1448C18.2752 1.1448 18.852 1.72 18.852 2.4432C18.852 3.1662 18.2752 3.7412 17.55 3.7412C16.825 3.7412 16.248 3.1662 16.248 2.4432C16.248 1.72 16.825 1.1448 17.55 1.1448Z" fill="black"/>
<path fill-rule="evenodd" clip-rule="evenodd" d="M17.6419 7.48242C17.1925 7.49242 16.7419 7.51142 16.2905 7.54482L16.3601 8.65122C16.7937 8.61982 17.228 8.59961 17.6627 8.59062L17.6419 7.48242ZM15.2469 7.64642C14.5529 7.73262 13.8529 7.85542 13.1609 8.05282L13.4215 9.12502C14.0503 8.94582 14.7019 8.83002 15.3637 8.74782L15.2469 7.64642ZM12.1247 8.42402C11.9174 8.51555 11.7166 8.62133 11.5239 8.74062L11.5231 8.74162L11.5219 8.74202C11.2469 8.91522 10.9571 9.13502 10.7205 9.45442C10.5491 9.68582 10.4089 9.97842 10.3761 10.3244L11.3951 10.4374C11.4027 10.3562 11.4443 10.249 11.5191 10.1482H11.5195V10.1478C11.6401 9.98462 11.8209 9.83642 12.0359 9.70082L12.0367 9.70042C12.1899 9.60584 12.3495 9.52191 12.5143 9.44922L12.1247 8.42402ZM11.6001 10.931L10.9395 11.778C11.0961 11.9212 11.2603 12.0312 11.4189 12.1232L11.4209 12.1242L11.4229 12.1254C11.9493 12.4248 12.4921 12.5938 12.9953 12.7542L13.2845 11.6906C12.7815 11.5302 12.3073 11.3754 11.9009 11.1446C11.7845 11.077 11.6825 11.0064 11.6001 10.931ZM14.2671 11.9898L13.9847 13.0552L14.1183 13.0968L14.2823 13.1492C14.8251 13.3258 15.3451 13.5144 15.8099 13.7754L16.2815 12.7914C15.7195 12.4756 15.1361 12.2692 14.5739 12.0864L14.5723 12.086L14.4039 12.0322L14.2671 11.9898ZM17.2405 13.5298L16.5159 14.3138C16.6871 14.4992 16.8153 14.7222 16.8777 14.9526L16.8781 14.9538L16.8785 14.9556C16.9529 15.2246 16.9531 15.541 16.8949 15.8606L17.8997 16.075C17.9817 15.6238 17.9949 15.1284 17.8601 14.6394C17.7427 14.207 17.5187 13.8314 17.2405 13.5298ZM16.5441 16.5286C16.4334 16.6456 16.311 16.7509 16.1789 16.843H16.1785C15.8185 17.0962 15.4009 17.287 14.9573 17.451L15.2881 18.4998C15.7733 18.3204 16.2715 18.1004 16.7371 17.7728L16.7383 17.7718L16.7389 17.7714C16.9301 17.6375 17.107 17.4843 17.2667 17.314L16.5441 16.5286ZM14.0161 17.7464C13.3735 17.9192 12.7167 18.0508 12.0519 18.1624L12.2087 19.2582C12.8929 19.1432 13.5799 19.0058 14.2627 18.8222L14.0161 17.7464ZM11.0517 18.3136C10.3825 18.405 9.70969 18.4796 9.03489 18.5432L9.12329 19.6476C9.80849 19.5832 10.4949 19.5074 11.1803 19.4136L11.0517 18.3136ZM8.02069 18.6302C7.34449 18.6838 6.66669 18.7274 5.98829 18.7642L6.03949 19.8714C6.72449 19.8344 7.41009 19.7902 8.09549 19.7358L8.02069 18.6302ZM4.96889 18.8142C4.56229 18.8332 4.15469 18.8488 3.74609 18.8632L3.77969 19.9714C4.19085 19.9573 4.60192 19.9409 5.01289 19.9222L4.96889 18.8142Z" fill="black"/>
</g>
<defs>
<clipPath id="clip0_76_2627">
<rect width="20" height="20" fill="white"/>
</clipPath>
</defs>
</svg>
