<svg width="25" height="11" viewBox="0 0 25 11" fill="none" xmlns="http://www.w3.org/2000/svg">
<path d="M0.647125 10V0.228H4.84712C5.75246 0.228 6.45246 0.494 6.94712 1.026C7.44179 1.558 7.68913 2.272 7.68913 3.168C7.68913 4.064 7.44179 4.778 6.94712 5.31C6.45246 5.842 5.75246 6.108 4.84712 6.108H2.22912V10H0.647125ZM2.22912 4.722H4.74912C5.15046 4.722 5.46313 4.61933 5.68712 4.414C5.91113 4.19933 6.02313 3.896 6.02313 3.504V2.832C6.02313 2.44 5.91113 2.14133 5.68712 1.936C5.46313 1.72133 5.15046 1.614 4.74912 1.614H2.22912V4.722ZM9.78778 8.6H11.3278L11.6918 7.704L8.16378 0.228H9.84378L11.6358 4.078L12.4058 5.884H12.4618L13.1198 4.05L14.6458 0.228H16.2278L12.7978 8.698C12.6951 8.95 12.5878 9.16 12.4758 9.328C12.3638 9.496 12.2331 9.63133 12.0838 9.734C11.9344 9.82733 11.7571 9.89733 11.5518 9.944C11.3558 9.98133 11.1178 10 10.8378 10H9.78778V8.6ZM20.5558 10.168C19.2772 10.168 18.2738 9.73867 17.5458 8.88C16.8178 8.012 16.4538 6.75667 16.4538 5.114C16.4538 4.29267 16.5472 3.56933 16.7338 2.944C16.9205 2.31867 17.1912 1.79133 17.5458 1.362C17.9005 0.932666 18.3298 0.610666 18.8338 0.395999C19.3472 0.171999 19.9212 0.0599995 20.5558 0.0599995C21.4052 0.0599995 22.1145 0.246666 22.6838 0.62C23.2625 0.993333 23.7152 1.544 24.0418 2.272L22.7118 3C22.5438 2.53333 22.2825 2.16467 21.9278 1.894C21.5825 1.614 21.1252 1.474 20.5558 1.474C19.7998 1.474 19.2072 1.73067 18.7778 2.244C18.3485 2.75733 18.1338 3.46667 18.1338 4.372V5.856C18.1338 6.76133 18.3485 7.47067 18.7778 7.984C19.2072 8.49733 19.7998 8.754 20.5558 8.754C21.1438 8.754 21.6198 8.60467 21.9838 8.306C22.3572 7.998 22.6325 7.606 22.8098 7.13L24.0838 7.9C23.7572 8.60933 23.2998 9.16467 22.7118 9.566C22.1238 9.96733 21.4052 10.168 20.5558 10.168Z" fill="#262626"/>
</svg>
