<svg width="23" height="23" viewBox="0 0 23 23" fill="none" xmlns="http://www.w3.org/2000/svg">
<path d="M11.4998 13.4167C11.6894 13.4167 11.8747 13.3605 12.0323 13.2552C12.1899 13.1499 12.3127 13.0002 12.3852 12.8251C12.4578 12.65 12.4767 12.4573 12.4398 12.2714C12.4028 12.0855 12.3115 11.9147 12.1775 11.7807C12.0435 11.6467 11.8727 11.5554 11.6868 11.5184C11.5009 11.4815 11.3082 11.5004 11.1331 11.573C10.958 11.6455 10.8083 11.7683 10.703 11.9259C10.5977 12.0835 10.5415 12.2688 10.5415 12.4584C10.5415 12.7125 10.6425 12.9563 10.8222 13.136C11.0019 13.3157 11.2457 13.4167 11.4998 13.4167ZM16.2915 13.4167C16.481 13.4167 16.6663 13.3605 16.8239 13.2552C16.9815 13.1499 17.1044 13.0002 17.1769 12.8251C17.2494 12.65 17.2684 12.4573 17.2314 12.2714C17.1944 12.0855 17.1032 11.9147 16.9691 11.7807C16.8351 11.6467 16.6644 11.5554 16.4785 11.5184C16.2926 11.4815 16.0999 11.5004 15.9248 11.573C15.7497 11.6455 15.6 11.7683 15.4947 11.9259C15.3894 12.0835 15.3332 12.2688 15.3332 12.4584C15.3332 12.7125 15.4341 12.9563 15.6139 13.136C15.7936 13.3157 16.0373 13.4167 16.2915 13.4167ZM11.4998 17.25C11.6894 17.25 11.8747 17.1938 12.0323 17.0885C12.1899 16.9832 12.3127 16.8335 12.3852 16.6584C12.4578 16.4833 12.4767 16.2906 12.4398 16.1047C12.4028 15.9188 12.3115 15.7481 12.1775 15.614C12.0435 15.48 11.8727 15.3887 11.6868 15.3518C11.5009 15.3148 11.3082 15.3338 11.1331 15.4063C10.958 15.4788 10.8083 15.6017 10.703 15.7593C10.5977 15.9169 10.5415 16.1021 10.5415 16.2917C10.5415 16.5459 10.6425 16.7896 10.8222 16.9693C11.0019 17.1491 11.2457 17.25 11.4998 17.25ZM16.2915 17.25C16.481 17.25 16.6663 17.1938 16.8239 17.0885C16.9815 16.9832 17.1044 16.8335 17.1769 16.6584C17.2494 16.4833 17.2684 16.2906 17.2314 16.1047C17.1944 15.9188 17.1032 15.7481 16.9691 15.614C16.8351 15.48 16.6644 15.3887 16.4785 15.3518C16.2926 15.3148 16.0999 15.3338 15.9248 15.4063C15.7497 15.4788 15.6 15.6017 15.4947 15.7593C15.3894 15.9169 15.3332 16.1021 15.3332 16.2917C15.3332 16.5459 15.4341 16.7896 15.6139 16.9693C15.7936 17.1491 16.0373 17.25 16.2915 17.25ZM6.70817 13.4167C6.89771 13.4167 7.08299 13.3605 7.24059 13.2552C7.39819 13.1499 7.52102 13.0002 7.59355 12.8251C7.66609 12.65 7.68507 12.4573 7.64809 12.2714C7.61111 12.0855 7.51984 11.9147 7.38581 11.7807C7.25179 11.6467 7.08103 11.5554 6.89513 11.5184C6.70923 11.4815 6.51654 11.5004 6.34143 11.573C6.16632 11.6455 6.01665 11.7683 5.91135 11.9259C5.80604 12.0835 5.74984 12.2688 5.74984 12.4584C5.74984 12.7125 5.8508 12.9563 6.03053 13.136C6.21025 13.3157 6.454 13.4167 6.70817 13.4167ZM18.2082 3.83335H17.2498V2.87502C17.2498 2.62085 17.1489 2.3771 16.9691 2.19738C16.7894 2.01765 16.5457 1.91669 16.2915 1.91669C16.0373 1.91669 15.7936 2.01765 15.6139 2.19738C15.4341 2.3771 15.3332 2.62085 15.3332 2.87502V3.83335H7.6665V2.87502C7.6665 2.62085 7.56554 2.3771 7.38581 2.19738C7.20609 2.01765 6.96234 1.91669 6.70817 1.91669C6.454 1.91669 6.21025 2.01765 6.03053 2.19738C5.8508 2.3771 5.74984 2.62085 5.74984 2.87502V3.83335H4.7915C4.02901 3.83335 3.29774 4.13625 2.75857 4.67542C2.2194 5.21459 1.9165 5.94586 1.9165 6.70835V18.2084C1.9165 18.9708 2.2194 19.7021 2.75857 20.2413C3.29774 20.7805 4.02901 21.0834 4.7915 21.0834H18.2082C18.9707 21.0834 19.7019 20.7805 20.2411 20.2413C20.7803 19.7021 21.0832 18.9708 21.0832 18.2084V6.70835C21.0832 5.94586 20.7803 5.21459 20.2411 4.67542C19.7019 4.13625 18.9707 3.83335 18.2082 3.83335ZM19.1665 18.2084C19.1665 18.4625 19.0655 18.7063 18.8858 18.886C18.7061 19.0657 18.4623 19.1667 18.2082 19.1667H4.7915C4.53734 19.1667 4.29358 19.0657 4.11386 18.886C3.93414 18.7063 3.83317 18.4625 3.83317 18.2084V9.58335H19.1665V18.2084ZM19.1665 7.66669H3.83317V6.70835C3.83317 6.45419 3.93414 6.21043 4.11386 6.03071C4.29358 5.85099 4.53734 5.75002 4.7915 5.75002H18.2082C18.4623 5.75002 18.7061 5.85099 18.8858 6.03071C19.0655 6.21043 19.1665 6.45419 19.1665 6.70835V7.66669ZM6.70817 17.25C6.89771 17.25 7.08299 17.1938 7.24059 17.0885C7.39819 16.9832 7.52102 16.8335 7.59355 16.6584C7.66609 16.4833 7.68507 16.2906 7.64809 16.1047C7.61111 15.9188 7.51984 15.7481 7.38581 15.614C7.25179 15.48 7.08103 15.3887 6.89513 15.3518C6.70923 15.3148 6.51654 15.3338 6.34143 15.4063C6.16632 15.4788 6.01665 15.6017 5.91135 15.7593C5.80604 15.9169 5.74984 16.1021 5.74984 16.2917C5.74984 16.5459 5.8508 16.7896 6.03053 16.9693C6.21025 17.1491 6.454 17.25 6.70817 17.25Z" fill="black"/>
</svg>
