<svg width="20" height="20" viewBox="0 0 20 20" fill="none" xmlns="http://www.w3.org/2000/svg">
<path fill-rule="evenodd" clip-rule="evenodd" d="M14.375 8.75024C14.375 9.48892 14.2295 10.2204 13.9468 10.9028C13.6641 11.5853 13.2498 12.2054 12.7275 12.7277C12.2051 13.25 11.585 13.6644 10.9026 13.9471C10.2201 14.2297 9.48868 14.3752 8.74999 14.3752C8.01131 14.3752 7.27986 14.2297 6.5974 13.9471C5.91494 13.6644 5.29485 13.25 4.77252 12.7277C4.25019 12.2054 3.83585 11.5853 3.55317 10.9028C3.27049 10.2204 3.12499 9.48892 3.12499 8.75024C3.12499 7.25839 3.71763 5.82765 4.77252 4.77276C5.82741 3.71787 7.25815 3.12524 8.74999 3.12524C10.2418 3.12524 11.6726 3.71787 12.7275 4.77276C13.7824 5.82765 14.375 7.25839 14.375 8.75024ZM13.35 14.6752C11.843 15.8452 9.9467 16.3969 8.04724 16.2179C6.14778 16.039 4.38792 15.1428 3.12593 13.712C1.86394 12.2811 1.19468 10.4231 1.25441 8.51618C1.31414 6.60924 2.09837 4.79675 3.44744 3.44768C4.7965 2.09861 6.609 1.31439 8.51593 1.25466C10.4229 1.19493 12.2809 1.86418 13.7117 3.12617C15.1426 4.38817 16.0387 6.14803 16.2177 8.04749C16.3966 9.94695 15.845 11.8432 14.675 13.3502L18.1625 16.8377C18.2546 16.9236 18.3285 17.0271 18.3797 17.1421C18.431 17.2571 18.4585 17.3812 18.4607 17.5071C18.463 17.633 18.4398 17.758 18.3926 17.8747C18.3455 17.9915 18.2753 18.0975 18.1863 18.1865C18.0973 18.2756 17.9912 18.3457 17.8745 18.3929C17.7578 18.44 17.6327 18.4632 17.5068 18.461C17.381 18.4588 17.2568 18.4312 17.1418 18.38C17.0268 18.3287 16.9233 18.2548 16.8375 18.1627L13.35 14.6752Z" fill="#262626"/>
</svg>
