<svg width="88" height="97" viewBox="0 0 88 97" fill="none" xmlns="http://www.w3.org/2000/svg">
<g clip-path="url(#clip0_297_1068)">
<g filter="url(#filter0_d_297_1068)">
<path d="M44 7.33334C58.1534 7.33334 69.6667 18.81 69.6667 33C69.6667 52.25 44 80.6667 44 80.6667C44 80.6667 18.3334 52.25 18.3334 33C18.3334 26.1928 21.0375 19.6644 25.851 14.8509C30.6644 10.0375 37.1928 7.33334 44 7.33334Z" fill="#3C40A4"/>
</g>
<g clip-path="url(#clip1_297_1068)">
<path d="M57.4588 35.9299C57.4588 35.6245 57.3632 35.2054 57.18 34.8892C56.9968 34.573 56.7331 34.311 56.4158 34.1298L45.0767 27.4003C44.7499 27.2097 44.3784 27.1092 44 27.1092C43.6217 27.1092 43.2501 27.2097 42.9233 27.4003L31.5674 34.1298C31.2536 34.316 30.9937 34.5806 30.8131 34.8977C30.6325 35.2148 30.5376 35.5734 30.5376 35.9383C30.5376 36.3032 30.6325 36.6618 30.8131 36.9789C30.9937 37.296 31.2536 37.5606 31.5674 37.7468L34.7975 39.6311V44.3585C34.7995 44.7279 34.8965 45.0907 35.0791 45.4118C35.2618 45.733 35.524 46.0017 35.8406 46.1922L42.9906 50.314C43.3098 50.4907 43.6688 50.5835 44.0337 50.5835C44.3986 50.5835 44.7575 50.4907 45.0767 50.314L52.2267 46.1922C52.5433 46.0017 52.8055 45.733 52.9882 45.4118C53.1709 45.0907 53.2678 44.7279 53.2698 44.3585V39.5806L55.3882 38.3059V42.9285H56.9412V37.2706C56.9412 37.2706 57.4588 36.2353 57.4588 35.9299ZM51.1837 44.3416L44 48.4802L36.9005 44.3585V40.876L42.9233 44.4594C43.2512 44.6468 43.6223 44.7453 44 44.7453C44.3777 44.7453 44.7488 44.6468 45.0767 44.4594L51.1668 40.8255L51.1837 44.3416Z" fill="white"/>
<rect x="55.3882" y="42.4471" width="1.55294" height="3.62353" fill="white"/>
</g>
<circle cx="56.1647" cy="46.8471" r="1.29412" fill="white"/>
</g>
<circle cx="43.9999" cy="91.7288" r="3.72881" fill="#3C40A4"/>
<circle cx="43.9999" cy="91.7288" r="4.22881" stroke="white" stroke-opacity="0.2"/>
<defs>
<filter id="filter0_d_297_1068" x="13.3334" y="4.33334" width="61.3334" height="83.3333" filterUnits="userSpaceOnUse" color-interpolation-filters="sRGB">
<feFlood flood-opacity="0" result="BackgroundImageFix"/>
<feColorMatrix in="SourceAlpha" type="matrix" values="0 0 0 0 0 0 0 0 0 0 0 0 0 0 0 0 0 0 127 0" result="hardAlpha"/>
<feOffset dy="2"/>
<feGaussianBlur stdDeviation="2.5"/>
<feComposite in2="hardAlpha" operator="out"/>
<feColorMatrix type="matrix" values="0 0 0 0 0.235294 0 0 0 0 0.25098 0 0 0 0 0.643137 0 0 0 0.5 0"/>
<feBlend mode="normal" in2="BackgroundImageFix" result="effect1_dropShadow_297_1068"/>
<feBlend mode="normal" in="SourceGraphic" in2="effect1_dropShadow_297_1068" result="shape"/>
</filter>
<clipPath id="clip0_297_1068">
<rect width="88" height="88" fill="white"/>
</clipPath>
<clipPath id="clip1_297_1068">
<rect width="26.9176" height="26.9176" fill="white" transform="translate(30.5411 25.3647)"/>
</clipPath>
</defs>
</svg>
