<svg width="170" height="170" viewBox="0 0 170 170" fill="none" xmlns="http://www.w3.org/2000/svg">
<g clip-path="url(#clip0_301_1211)">
<path d="M84.9998 14.1667C112.341 14.1667 134.583 36.3375 134.583 63.75C134.583 100.938 84.9998 155.833 84.9998 155.833C84.9998 155.833 35.4165 100.938 35.4165 63.75C35.4165 50.5997 40.6404 37.988 49.9391 28.6893C59.2378 19.3906 71.8495 14.1667 84.9998 14.1667Z" fill="#3C40A4"/>
<g clip-path="url(#clip1_301_1211)">
<path d="M111 69.41C111 68.82 110.815 68.0104 110.461 67.3996C110.107 66.7888 109.598 66.2826 108.985 65.9325L87.0801 52.9325C86.4488 52.5642 85.731 52.3701 85.0001 52.3701C84.2692 52.3701 83.5514 52.5642 82.9201 52.9325L60.9826 65.9325C60.3764 66.2922 59.8742 66.8035 59.5254 67.416C59.1766 68.0286 58.9932 68.7213 58.9932 69.4262C58.9932 70.1311 59.1766 70.8239 59.5254 71.4365C59.8742 72.049 60.3764 72.5603 60.9826 72.92L67.2226 76.56V85.6925C67.2263 86.4062 67.4137 87.107 67.7666 87.7274C68.1195 88.3478 68.626 88.867 69.2376 89.235L83.0501 97.1975C83.6668 97.5389 84.3602 97.7181 85.0651 97.7181C85.77 97.7181 86.4634 97.5389 87.0801 97.1975L100.893 89.235C101.504 88.867 102.011 88.3478 102.364 87.7274C102.717 87.107 102.904 86.4062 102.908 85.6925V76.4625L107 74V82.93H110V72C110 72 111 70 111 69.41ZM98.8776 85.66L85.0001 93.655L71.2851 85.6925V78.965L82.9201 85.8875C83.5536 86.2495 84.2705 86.4399 85.0001 86.4399C85.7297 86.4399 86.4466 86.2495 87.0801 85.8875L98.8451 78.8675L98.8776 85.66Z" fill="white"/>
<rect x="107" y="82" width="3" height="7" fill="white"/>
</g>
<circle cx="108.5" cy="90.5" r="2.5" fill="white"/>
</g>
<defs>
<clipPath id="clip0_301_1211">
<rect width="170" height="170" fill="white"/>
</clipPath>
<clipPath id="clip1_301_1211">
<rect width="52" height="52" fill="white" transform="translate(59 49)"/>
</clipPath>
</defs>
</svg>
